<?xml version="1.0" encoding="utf-8"?>

<!DOCTYPE svg PUBLIC "-//W3C//DTD SVG 1.1//EN" "http://www.w3.org/Graphics/SVG/1.1/DTD/svg11.dtd">

<svg fill="#000000" version="1.1" id="Layer_1" xmlns="http://www.w3.org/2000/svg" xmlns:xlink="http://www.w3.org/1999/xlink" 
	 width="800px" height="800px" viewBox="0 0 72 72" enable-background="new 0 0 72 72" xml:space="preserve">
<g>
	<path d="M36,3.518C18.089,3.518,3.518,18.089,3.518,36c0,17.91,14.571,32.482,32.482,32.482S68.482,53.91,68.482,36
		C68.482,18.089,53.911,3.518,36,3.518z M36,64.482C20.295,64.482,7.518,51.705,7.518,36S20.295,7.518,36,7.518
		S64.482,20.295,64.482,36S51.705,64.482,36,64.482z"/>
	<path d="M42.646,11.739c-0.526-0.142-1.082,0.168-1.229,0.701c-0.146,0.534,0.168,1.083,0.701,1.229
		C52.145,16.41,59.148,25.593,59.148,36c0,0.553,0.447,1,1,1s1-0.447,1-1C61.148,24.694,53.54,14.718,42.646,11.739z"/>
	<path d="M36,12.851c0.433,0,0.863,0.012,1.293,0.035c0.02,0.002,0.037,0.002,0.057,0.002c0.526,0,0.967-0.413,0.996-0.945
		c0.03-0.552-0.392-1.024-0.943-1.053c-0.465-0.025-0.932-0.039-1.402-0.039c-0.553,0-1,0.447-1,1
		C35,12.404,35.447,12.851,36,12.851z"/>
	<path d="M41.947,30.911l0.047,3.609c0.018,1.199,0.973,2.103,2.227,2.103c0.461,0,0.92-0.126,1.34-0.375l7.492-4.633
		c0.692-0.412,1.086-1.041,1.076-1.728c-0.009-0.731-0.464-1.402-1.223-1.827l-7.467-4.462c-0.959-0.535-2.26-0.379-2.975,0.348
		c-0.388,0.393-0.597,0.921-0.588,1.484l0.045,3.482c-1.966,0.073-6.154,0.926-9.646,6.339c-1.537-3.96-3.792-6.625-6.727-7.91
		c-4.393-1.921-8.61-0.007-8.788,0.075c-0.5,0.233-0.717,0.828-0.485,1.329c0.233,0.5,0.825,0.718,1.329,0.485
		c0.036-0.018,3.567-1.621,7.143-0.057c2.727,1.193,4.791,3.922,6.136,8.109c0.03,0.094,0.066,0.175,0.097,0.268
		c-0.014,0.029-0.029,0.057-0.044,0.086c-5.325,10.936-13.081,8.275-13.403,8.156c-0.516-0.188-1.094,0.07-1.287,0.588
		c-0.192,0.518,0.07,1.094,0.588,1.287c0.034,0.012,1.267,0.449,3.121,0.449c3.167,0,8.143-1.282,12.023-8.161
		c2.824,5.491,7.425,6.235,9.713,6.235c0.084,0,0.15-0.004,0.228-0.006l-0.044,3.436c-0.009,0.564,0.2,1.093,0.588,1.486
		c0.426,0.432,1.043,0.68,1.697,0.68c0.445,0,0.888-0.115,1.302-0.346l7.418-4.434c0.782-0.439,1.237-1.109,1.246-1.842
		c0.009-0.686-0.384-1.316-1.062-1.719l-7.522-4.65c-0.403-0.24-0.862-0.367-1.323-0.367c-1.254,0-2.209,0.904-2.227,2.105
		l-0.048,3.678c-1.781,0.1-6.348-0.306-8.783-6.498C36.337,31.822,40.297,30.979,41.947,30.911z M44.162,25.267
		c0.074,0,0.188,0.014,0.275,0.062l7.465,4.461c0.061,0.034,0.107,0.067,0.144,0.095c-0.01,0.007-0.021,0.013-0.03,0.02
		l-7.494,4.633c-0.369,0.221-0.525,0.084-0.527-0.044l-0.104-9.145C43.93,25.309,44.029,25.267,44.162,25.267z M43.994,40.561
		c0.001-0.086,0.078-0.131,0.227-0.131c0.07,0,0.182,0.016,0.287,0.08l7.521,4.649c0.006,0.004,0.012,0.006,0.017,0.01
		c-0.04,0.031-0.094,0.067-0.166,0.108l-7.416,4.433c-0.319,0.175-0.507,0.089-0.587-0.062L43.994,40.561z"/>
</g>
</svg>